<svg width="14" height="14" viewBox="0 0 14 14" fill="none" xmlns="http://www.w3.org/2000/svg">
<path d="M9.71801 0.720949H11.3098C11.6473 0.714982 11.9751 0.833113 12.2312 1.05292C12.4873 1.27272 12.6537 1.5789 12.699 1.91333V6.08666C12.6537 6.42109 12.4873 6.72727 12.2312 6.94707C11.9751 7.16688 11.6473 7.28501 11.3098 7.27904H9.71801M5.54468 8.47143V10.8562C5.54468 11.3305 5.73312 11.7855 6.06854 12.1209C6.40396 12.4563 6.85889 12.6448 7.33325 12.6448L9.71801 7.27904V0.720949H2.99298C2.70542 0.717698 2.42638 0.818483 2.20726 1.00473C1.98814 1.19098 1.84372 1.45015 1.8006 1.73447L0.977858 7.10019C0.951919 7.27108 0.963445 7.44557 1.01164 7.61157C1.05983 7.77757 1.14354 7.9311 1.25696 8.06154C1.37038 8.19197 1.5108 8.29619 1.6685 8.36696C1.8262 8.43774 1.9974 8.47338 2.17024 8.47143H5.54468Z" stroke="#83859C" stroke-width="0.894286" stroke-linecap="round" stroke-linejoin="round"/>
</svg>
