<svg width="13" height="13" viewBox="0 0 13 13" fill="none" xmlns="http://www.w3.org/2000/svg">
<path fill-rule="evenodd" clip-rule="evenodd" d="M7.58104 2.50952V4.89428H10.9555C11.1283 4.89232 11.2995 4.92797 11.4572 4.99874C11.6149 5.06952 11.7553 5.17374 11.8688 5.30417C11.9822 5.43461 12.0659 5.58814 12.1141 5.75414C12.1623 5.92013 12.1738 6.09462 12.1479 6.26552L11.3251 11.6312C11.282 11.9156 11.1376 12.1747 10.9185 12.361C10.6993 12.5472 10.4203 12.648 10.1327 12.6448L3.85486 12.6448L3.85486 5.08058L5.79247 0.720947C6.26683 0.720947 6.72176 0.909386 7.05718 1.24481C7.39261 1.58023 7.58104 2.03516 7.58104 2.50952ZM2.96057 12.6448L2.96057 6.08666H1.61914C1.3029 6.08666 0.999613 6.21229 0.775998 6.4359C0.552383 6.65952 0.426758 6.9628 0.426758 7.27904V11.4524C0.426758 11.7686 0.552383 12.0719 0.775998 12.2955C0.999613 12.5191 1.3029 12.6448 1.61914 12.6448L2.96057 12.6448Z" fill="#545563"/>
</svg>
