<svg width="10" height="10" viewBox="0 0 10 10" fill="none" xmlns="http://www.w3.org/2000/svg">
<path d="M4.75322 1.23235C4.95005 0.833587 5.51868 0.833588 5.71551 1.23235L6.72159 3.27056C6.79969 3.42876 6.95056 3.53847 7.12514 3.56399L9.37586 3.89296C9.8158 3.95727 9.99115 4.49805 9.67264 4.80827L8.04487 6.39371C7.91831 6.51699 7.86054 6.69466 7.89041 6.8688L8.27445 9.10797C8.34964 9.54633 7.8895 9.88059 7.49586 9.67358L5.48411 8.61562C5.32777 8.5334 5.14097 8.5334 4.98462 8.61562L2.97288 9.67358C2.57923 9.88059 2.1191 9.54633 2.19428 9.10797L2.57833 6.8688C2.60819 6.69466 2.55042 6.51699 2.42386 6.39371L0.796092 4.80827C0.477587 4.49805 0.652931 3.95727 1.09287 3.89296L3.3436 3.56399C3.51817 3.53847 3.66905 3.42876 3.74714 3.27056L4.75322 1.23235Z" fill="#4E60FF"/>
</svg>
