<svg width="10" height="10" viewBox="0 0 10 10" fill="none" xmlns="http://www.w3.org/2000/svg">
<path opacity="0.5" d="M4.41032 1.23235C4.60716 0.833587 5.17579 0.833588 5.37262 1.23235L6.3787 3.27056C6.45679 3.42876 6.60767 3.53847 6.78224 3.56399L9.03297 3.89296C9.47291 3.95727 9.64825 4.49805 9.32975 4.80827L7.70198 6.39371C7.57542 6.51699 7.51765 6.69466 7.54751 6.8688L7.93156 9.10797C8.00674 9.54633 7.54661 9.88059 7.15296 9.67358L5.14122 8.61562C4.98487 8.5334 4.79807 8.5334 4.64172 8.61562L2.62998 9.67358C2.23634 9.88059 1.7762 9.54633 1.85139 9.10797L2.23543 6.8688C2.2653 6.69466 2.20753 6.51699 2.08096 6.39371L0.453197 4.80827C0.134692 4.49805 0.310035 3.95727 0.749978 3.89296L3.0007 3.56399C3.17528 3.53847 3.32615 3.42876 3.40425 3.27056L4.41032 1.23235Z" fill="#C7C8D2"/>
</svg>
